<svg xmlns="http://www.w3.org/2000/svg" width="1156" height="98" fill="none"><g clip-path="url(#a)"><path fill="#263238" fill-rule="evenodd" d="M14 29c5.523 0 10 4.477 10 10V29h10c5.523 0 10 4.477 10 10s-4.477 10-10 10c5.523 0 10 4.477 10 10a9.968 9.968 0 0 1-2.891 7.033l-.038.038-.033.033A9.968 9.968 0 0 1 34 69a9.968 9.968 0 0 1-7.136-2.995A9.968 9.968 0 0 1 24 59c0 5.523-4.477 10-10 10S4 64.523 4 59V49h10C8.477 49 4 44.523 4 39s4.477-10 10-10Zm8 10a8 8 0 0 1-8 8V31a8 8 0 0 1 8 8Zm20 20a8 8 0 1 0-16 0h16ZM6 51v8a8 8 0 1 0 16 0v-8H6Zm20-4V31h8a8 8 0 1 1 0 16h-8Z" clip-rule="evenodd"/></g><g clip-path="url(#b)"><path fill="#3B4158" fill-rule="evenodd" d="M197.986 38.961 188 48.847a28.256 28.256 0 0 0 6.767 4.947A13.926 13.926 0 0 0 198 58.746c5.523 5.468 14.477 5.468 20 0a13.925 13.925 0 0 0 3.233-4.952A28.253 28.253 0 0 0 228 48.847l-9.978-9.878-.022-.022c-5.523-5.467-14.477-5.467-20 0l-.014.014Zm19.059 16.617a28.548 28.548 0 0 1-18.089 0c.315.414.663.811 1.044 1.188 4.418 4.374 11.582 4.374 16 0 .381-.377.729-.774 1.045-1.188Zm-16.84-14.849a14.27 14.27 0 0 0 15.59 0c-4.363-4.11-11.227-4.11-15.59 0Z" clip-rule="evenodd"/></g><g clip-path="url(#c)"><path fill="#000" d="M419.996 44.517a.528.528 0 0 0 0-.126.353.353 0 0 0 0-.103l-.408-2.932a1.894 1.894 0 0 0-.454-.948l-.07-.08-.127-.125-7.054-5.957.198.194a1.684 1.684 0 0 0-.595-.444 1.717 1.717 0 0 0-.732-.149h-2.142a1.57 1.57 0 0 0-.966.308 1.697 1.697 0 0 0-1.001-.308h-2.142a1.618 1.618 0 0 0-.803.198c-.245.134-.45.33-.593.567a1.566 1.566 0 0 0-.233 1.14l.268 1.85a1.187 1.187 0 0 0-.582-.149h-10.371c-.372.002-.736.11-1.048.308-.302.185-.544.45-.698.765l-.803-.674a1.684 1.684 0 0 0-1.164-.433h-16.272a2.175 2.175 0 0 0-1.06.297c-.438.251-.76.66-.896 1.14l-5.168 16.946c-.096.28-.106.58-.027.865a1.483 1.483 0 0 0 .656.87s-.105-.069-.163-.126l7.053 5.968c.299.27.689.42 1.094.422h16.401c.374-.01.739-.116 1.059-.308.18-.097.342-.224.477-.377l.058-.08.093-.114.07-.125.768.65c.294.259.676.401 1.071.4h16.435a2.22 2.22 0 0 0 1.059-.308c.177-.103.338-.23.478-.377l.058-.08.093-.114c.05-.072.092-.148.128-.228.038-.07.069-.142.093-.217l4.714-15.473v-.137a.712.712 0 0 0 0-.16v-.103a.296.296 0 0 0 0-.102 1.569 1.569 0 0 0 0-.217h1.513c.132.012.264.012.396 0h.105c.085-.025.167-.06.244-.103h.117l.209-.16.093-.068.163-.206v-.068l.117-.194a.312.312 0 0 1 0-.114.08.08 0 0 1 0-.057 1.46 1.46 0 0 0 .058-.205.133.133 0 0 1 0-.069.295.295 0 0 1 0-.103s.233-.445.233-.468Z"/><path fill="#fff" d="M388.953 38.72a.398.398 0 0 1 .105.445l-5.157 16.934a.79.79 0 0 1-.372.433.993.993 0 0 1-.477.16h-16.389a.575.575 0 0 1-.372-.16.39.39 0 0 1-.105-.433l5.168-16.934a.787.787 0 0 1 .361-.445 1.06 1.06 0 0 1 .477-.149h16.388a.555.555 0 0 1 .373.149Zm-8.555 13.967 3.084-10.11h-8.636l-3.073 10.11h8.625Zm24.198-13.796a.57.57 0 0 0 .454.194h2.13a.485.485 0 0 0 .408-.217.47.47 0 0 0 .081-.365l-.419-3.013a.952.952 0 0 0-.209-.376.57.57 0 0 0-.454-.194h-2.13a.489.489 0 0 0-.408.217c-.081.16-.116.262-.081.353l.431 3.013a.692.692 0 0 0 .197.388Zm6.763-3.423a.952.952 0 0 0-.209-.377.55.55 0 0 0-.443-.194h-2.141a.443.443 0 0 0-.396.217.47.47 0 0 0-.093.354l.43 3.012c.027.145.096.28.198.388a.59.59 0 0 0 .454.194h2.142a.458.458 0 0 0 .396-.217.427.427 0 0 0 .081-.365l-.419-3.012Zm-8.637 4.564-.209-1.483h-10.324a.92.92 0 0 0-.454.148.666.666 0 0 0-.338.445l-.861 2.83a.38.38 0 0 0 .07.434c.098.09.226.143.361.148h12.547l-3.084 10.11h-12.513a.886.886 0 0 0-.454.137.778.778 0 0 0-.338.445l-.872 2.83a.413.413 0 0 0 .081.434.54.54 0 0 0 .361.16h16.435c.17-.015.334-.07.477-.16a.767.767 0 0 0 .361-.434l4.726-15.474h-5.32a.626.626 0 0 1-.454-.182.834.834 0 0 1-.198-.365v-.023Z"/></g><g fill="#3A3B7B" clip-path="url(#d)"><path d="M596.997 38.411c0 .034 0 .077-.009.102-.044.33-.044.66-.018.998.018.084.035.168.106.236.114.127.29.102.361-.05a.34.34 0 0 0 .017-.229c-.088-.321-.105-.66-.114-.989v-.068c.097-.008.185-.016.264-.016a.433.433 0 0 0 .159-.043c.132-.067.132-.211-.009-.279a.448.448 0 0 0-.185-.033c-.22.008-.44.008-.661.008-.079 0-.158.008-.237.017-.044.008-.097.008-.132.034-.062.025-.097.067-.097.127.008.059.035.093.097.118a.208.208 0 0 0 .123.034c.105.008.22.025.335.033Zm2.422.39c0 .008.008.016.008.016.036.228.071.448.097.668.009.076.018.144.071.203.114.144.29.127.37-.025a.363.363 0 0 0 .026-.237c-.053-.254-.079-.507-.132-.752a5.043 5.043 0 0 0-.123-.432.207.207 0 0 0-.194-.152.215.215 0 0 0-.229.11 1.05 1.05 0 0 0-.132.211c-.062.136-.115.271-.185.398a.265.265 0 0 1-.035.084c-.009-.017-.018-.025-.018-.025-.114-.211-.22-.423-.335-.626-.017-.017-.026-.033-.035-.05-.053-.076-.114-.119-.211-.119a.26.26 0 0 0-.203.136c-.017.033-.017.059-.026.093-.036.27-.08.54-.115.811a4.11 4.11 0 0 0-.026.457.165.165 0 0 0 .017.11c.018.067.071.11.141.118.088.008.15-.017.176-.085a.47.47 0 0 0 .045-.135c.035-.152.061-.296.088-.44.017-.084.026-.152.052-.245.018.034.036.06.053.085.08.101.159.203.256.287.097.068.176.06.255-.017l.044-.042c.079-.118.176-.237.256-.355.017-.017.026-.034.044-.05ZM579.124 38.578c-.061.16-.072.276-.044.372.031.131.112.174.222.14 1.035-.245 3.303.452 4.143.646.198.041.359-.204.224-.424-.197-.213-2.465-1.126-3.33-1.176-.339-.018-.945-.101-1.215.442ZM587.99 35.624c.111.061.172.12.203.185.045.085.021.144-.055.174-.684.32-1.594 1.7-1.961 2.175-.089.11-.295.046-.326-.134.007-.203.813-1.7 1.264-2.107.176-.16.469-.472.875-.293ZM582.544 34.946c.133-.096.271-.13.341-.068 1.032.847 1.579 2.188 1.918 3.416.012.029.013.07.003.113-.004.036-.032.075-.076.105-.048.033-.088.043-.107.014-.453-.59-3.035-2.887-2.079-3.58ZM560.695 49.629a3.84 3.84 0 0 1 .801-.438c.297-.082.615-.069.904.038.289.107.533.301.697.553.147.252.204.542.163.828-.04.285-.176.55-.387.755-.164.166-.35.311-.552.43-.905.561-1.818 1.092-2.731 1.653-.186.14-.384.266-.592.376a1.57 1.57 0 0 1-1.02.115 1.523 1.523 0 0 1-.862-.537 3.025 3.025 0 0 1-.4-.623c-.865-1.744-1.761-3.48-2.594-5.256-.384-.768-.696-1.652-1.001-2.505a1.03 1.03 0 0 1-.071-.8c.085-.267.276-.49.53-.623.255-.133.553-.166.832-.09.28.074.517.25.663.491.448.571.844 1.178 1.185 1.814.864 1.536 1.689 3.073 2.522 4.564.048.082.102.162.16.238a7.848 7.848 0 0 0 1.753-.983ZM569.635 49.093c-1.977 2.22-5.292 1.66-6.957-1.2-1.185-2.028-1.393-5.378 1.185-7.491a4.328 4.328 0 0 1 1.913-.876 4.293 4.293 0 0 1 2.518.418 4.058 4.058 0 0 1 1.782 1.756c1.409 2.46 1.209 5.594-.441 7.392Zm-.8-5.18a2.781 2.781 0 0 0-1.193-1.46 1.75 1.75 0 0 0-2.138.131c-1.145.976-1.385 3.289-.552 4.664.106.225.262.424.457.584.194.16.423.278.67.345a1.834 1.834 0 0 0 1.467-.23 3.626 3.626 0 0 0 1.302-1.819 3.487 3.487 0 0 0-.037-2.207l.024-.008ZM577.706 44.882a1.62 1.62 0 0 1-1.185-.215 1.166 1.166 0 0 1-.381-.334 1.098 1.098 0 0 1 .076-1.388 1.47 1.47 0 0 1 .801-.515 12.04 12.04 0 0 1 2.562-.422 1.498 1.498 0 0 1 1.074.299 1.354 1.354 0 0 1 .527.946c.25.9.278 1.845.08 2.758-.72 2.95-3.202 3.965-5.988 3.02a4.15 4.15 0 0 1-1.97-1.352 6.255 6.255 0 0 1-1.385-2.62 5.295 5.295 0 0 1 .063-2.603 5.452 5.452 0 0 1 1.298-2.285 5.659 5.659 0 0 1 2.21-1.621 2.589 2.589 0 0 1 1.793-.23.804.804 0 0 1 .362.206.74.74 0 0 1 .191.758.77.77 0 0 1-.224.342c-.2.173-.418.328-.649.46a6.565 6.565 0 0 0-1.825 1.653 3.528 3.528 0 0 0-.654 1.429 3.455 3.455 0 0 0 .037 1.56 3.452 3.452 0 0 0 1.153 1.79c1.761 1.537 4.051.054 3.651-2.044-.585.139-1.097.285-1.617.408ZM588.466 49.215c-2.602 1.537-5.564 0-6.213-3.227-.472-2.305.425-5.532 3.563-6.762a4.434 4.434 0 0 1 2.106-.261 4.22 4.22 0 0 1 2.248 1.158 3.934 3.934 0 0 1 1.122 2.2c.529 2.743-.672 5.67-2.826 6.892Zm.905-5.171a2.647 2.647 0 0 0-.665-1.744 1.685 1.685 0 0 0-.937-.613 1.745 1.745 0 0 0-1.128.098c-1.409.584-2.402 2.705-2.042 4.265.028.244.11.48.243.691.132.211.311.392.524.53a1.831 1.831 0 0 0 1.467.224 3.772 3.772 0 0 0 1.844-1.336 3.536 3.536 0 0 0 .694-2.115ZM593.924 49.86c-.04.282-.194.537-.429.71a1.148 1.148 0 0 1-1.562-.202 1.037 1.037 0 0 1-.219-.791 1.06 1.06 0 0 1 .428-.709 1.15 1.15 0 0 1 1.563.201c.179.226.258.51.219.792Zm-.697-10.365c.152-.223.376-.393.637-.485.261-.091.546-.099.812-.022.271.065.51.217.678.431.167.214.253.477.243.745-.035.429-.102.855-.2 1.275-.264 1.422-.521 2.843-.801 4.25a19.414 19.414 0 0 1-.48 1.667 1.179 1.179 0 0 1-.313.469.793.793 0 0 1-.325.218.834.834 0 0 1-.763-.105.778.778 0 0 1-.249-.298 1.74 1.74 0 0 1-.152-.668c0-.953 0-1.914.064-2.874a26.87 26.87 0 0 1 .641-4.073 1.5 1.5 0 0 1 .208-.507v-.023Z"/><path fill-rule="evenodd" d="M557.313 56.036a1.02 1.02 0 0 0-.075.645c.031.287.099.569.201.84.129.33.272.658.449 1.062l.128.292c.238.547.538 1.247.937 2.259.113.287.214.577.315.869l.124.355c.15.421.409.8.752 1.1.145.165.338.285.555.346.221.06.456.057.674-.012.219-.068.411-.198.551-.373a1.07 1.07 0 0 0 .235-.593c.09-.42.059-.856-.088-1.261a21.64 21.64 0 0 0-.806-2.005l-.002-.003a125.51 125.51 0 0 0-1.555-3.078l-.004-.007a2.67 2.67 0 0 0-.604-.704 1.063 1.063 0 0 0-.614-.34c-.245-.042-.498 0-.713.12a1.075 1.075 0 0 0-.46.488ZM565.022 53.498a5.848 5.848 0 0 0-2.422-.084c-.623.059-1.235.197-1.661.47a1.237 1.237 0 0 0-.488.544c-.098.229-.11.49-.03.78.146.532.336 1.05.526 1.566l.03.084.001.002c.57 1.498 1.146 2.992 1.727 4.481.068.235.164.461.286.675l.002.004c.161.265.368.502.611.701.122.11.272.186.435.22a.96.96 0 0 0 .496-.03.921.921 0 0 0 .408-.27.87.87 0 0 0 .201-.428 2.07 2.07 0 0 0-.097-1.284c-.052-.137-.093-.278-.137-.425l-.044-.151c1.33-.499 2.745-1.17 3.242-2.73.195-.54.212-1.124.047-1.673a2.763 2.763 0 0 0-.968-1.393 5.703 5.703 0 0 0-2.165-1.059Zm-2.194 1.915c.027-.008.053-.014.079-.02a3.763 3.763 0 0 1 2.495.49c.327.218.461.46.484.694.024.24-.067.501-.25.752-.346.473-.977.852-1.547.922a265.47 265.47 0 0 1-1.261-2.838Z" clip-rule="evenodd"/><path d="M570.299 51.816c.943-.417 2.11-.49 3.024-.196.23.065.43.204.565.394a.96.96 0 0 1 .175.644.904.904 0 0 1-.11.425.962.962 0 0 1-.306.334 1.014 1.014 0 0 1-.893.114l-.011-.003-.011-.006a1.024 1.024 0 0 0-.238-.085h-.006c-.642-.165-1.248.107-1.47.44-.106.16-.119.32-.031.466.095.156.326.332.793.457.129.034.26.067.394.1.37.092.754.187 1.126.32h.001c1.714.626 2.352 1.922 2.134 3.141-.217 1.206-1.266 2.303-2.843 2.562a3.52 3.52 0 0 1-1.734-.069 3.403 3.403 0 0 1-1.472-.889l-.01-.01a1.214 1.214 0 0 1-.25-.535.902.902 0 0 1 .053-.523.94.94 0 0 1 .335-.412 1.061 1.061 0 0 1 1.123-.084c.175.081.338.185.484.308l.002.002c.259.227.571.286.871.231.304-.055.59-.228.773-.457.183-.228.256-.498.169-.76-.087-.265-.351-.561-.929-.809a5.044 5.044 0 0 0-.471-.16l-.134-.039a10.62 10.62 0 0 1-.366-.11 17.374 17.374 0 0 0-.25-.08c-.225-.07-.444-.139-.655-.23a2.256 2.256 0 0 1-1.132-.823 2.106 2.106 0 0 1-.396-1.313c.001-1.14.749-1.924 1.696-2.345ZM582.249 51.695a1.27 1.27 0 0 0-1.164.046c-.174.1-.319.238-.424.404a1.24 1.24 0 0 0-.192.957c.034.211.072.416.109.618.062.334.122.66.161.994l.002.008c.09.522.137 1.05.142 1.58v.007a2.143 2.143 0 0 1-.565 1.562l-.007.008a1.112 1.112 0 0 1-.493.347c-.195.07-.407.085-.611.046a1.136 1.136 0 0 1-.544-.269 1.064 1.064 0 0 1-.316-.503 5.255 5.255 0 0 1-.202-1.244l.2-3.049.009-.122c.008-.093.016-.187.019-.275a1.37 1.37 0 0 0-.031-.388.72.72 0 0 0-.202-.356 1.01 1.01 0 0 0-.435-.231c-.33-.092-.609-.09-.841.005-.233.095-.392.271-.505.474-.112.202-.184.44-.238.679-.041.177-.073.363-.104.54l-.032.18v.001a12.421 12.421 0 0 0-.146 2.94c.013.53.128 1.054.34 1.544.239.633.673 1.18 1.243 1.572a3.567 3.567 0 0 0 1.957.619 3.574 3.574 0 0 0 1.977-.555 3.358 3.358 0 0 0 1.298-1.532 5.52 5.52 0 0 0 .503-2.53 87.69 87.69 0 0 0-.094-1.91l-.051-.934a1.476 1.476 0 0 0-.305-.861 1.215 1.215 0 0 0-.458-.372ZM588.717 56.476l-.058.07c-.149-.822-.287-1.645-.425-2.47l-.149-.888-.005-.033-.019-.028c-.034-.054-.038-.107-.038-.22v-.012l-.002-.013a1.147 1.147 0 0 0-.313-.62 1.233 1.233 0 0 0-.621-.341 1.29 1.29 0 0 0-.717.036c-.23.079-.43.221-.576.41-.121.143-.22.303-.295.474-.168.368-.339.737-.51 1.107l-.002.007c-.427.923-.856 1.853-1.273 2.79l-.001.003c-.256.608-.467 1.248-.678 1.886l-.126.382c-.076.201-.11.415-.098.63a.906.906 0 0 0 .137.546c.105.168.262.3.449.378.199.084.421.102.631.05a.98.98 0 0 0 .53-.33c.171-.201.318-.42.437-.653.353-.694.691-1.395 1.027-2.094.13-.27.256-.512.4-.776.009.033.02.064.03.096.151.637.405 1.246.753 1.806a.955.955 0 0 0 .269.305 1.017 1.017 0 0 0 1.184.001l.224-.16 1.734-1.402-.103.627c-.141.862-.28 1.717-.429 2.572-.097.378-.097.774.001 1.153.042.213.149.41.308.564.161.156.366.261.59.304.223.042.455.018.665-.068.207-.084.382-.225.505-.406.286-.34.464-.752.513-1.187.073-.614.157-1.236.24-1.859.096-.717.191-1.434.272-2.137l.001-.002c.077-.77.115-1.543.113-2.316a1.133 1.133 0 0 0-.182-.696 1.204 1.204 0 0 0-.573-.464 1.316 1.316 0 0 0-.789-.082 1.273 1.273 0 0 0-.68.38 9.79 9.79 0 0 0-.899.91l-.001.002c-.304.363-.606.733-.906 1.102-.182.223-.364.447-.545.666Z"/></g><g fill="#212326" clip-path="url(#e)"><path d="M778.438 36.69c0 .467.382.844.854.844h.854a.849.849 0 0 0 .854-.843.849.849 0 0 0-.854-.844h-.854a.849.849 0 0 0-.854.843ZM753.667 62.847h4.149l-1.208-1.194a1.719 1.719 0 0 0-1.208-.494h-1.733c-6.605 0-11.959-5.288-11.959-11.812 0-6.524 5.354-11.813 11.959-11.813h13.666c6.605 0 11.959 5.289 11.959 11.813 0 6.524-5.354 11.812-11.959 11.812h-5.112c-.68 0-1.332-.266-1.812-.741l-1.415-1.398a4.3 4.3 0 0 0-3.02-1.236h-2.307c-4.718 0-8.542-3.777-8.542-8.437 0-4.66 3.824-8.438 8.542-8.438h13.666c4.718 0 8.542 3.778 8.542 8.438s-3.824 8.437-8.542 8.437h-3.282c-.68 0-1.332-.266-1.812-.741l-1.416-1.398a4.297 4.297 0 0 0-3.02-1.236h-4.136c-2.831 0-5.125-2.266-5.125-5.062 0-2.796 2.294-5.063 5.125-5.063h13.666c2.831 0 5.125 2.267 5.125 5.063 0 2.762-2.239 5.007-5.021 5.061l-.001.001h-1.25c-.68 0-1.331-.266-1.812-.741l-1.415-1.398a4.29 4.29 0 0 0-2.416-1.193l-.043-.043h-6.833a1.698 1.698 0 0 1-1.709-1.687c0-.932.765-1.688 1.709-1.688h13.666c.944 0 1.709.756 1.709 1.688 0 .932-.765 1.687-1.709 1.687h-3.416l1.208 1.194c.32.316.755.494 1.208.494h1c1.887 0 3.417-1.511 3.417-3.375s-1.53-3.375-3.417-3.375h-13.666c-1.887 0-3.417 1.51-3.417 3.375 0 1.864 1.53 3.375 3.417 3.375h6.272c.68 0 1.331.267 1.812.741l1.415 1.398a4.297 4.297 0 0 0 3.02 1.236h1.574v-.013c3.575-.218 6.407-3.151 6.407-6.737 0-3.728-3.06-6.75-6.834-6.75h-13.666c-3.774 0-6.834 3.022-6.834 6.75s3.06 6.75 6.834 6.75h4.136c.68 0 1.332.267 1.812.741l1.416 1.398a4.297 4.297 0 0 0 3.02 1.236h3.282c5.661 0 10.25-4.533 10.25-10.125s-4.589-10.125-10.25-10.125h-13.666c-5.661 0-10.25 4.533-10.25 10.125s4.589 10.125 10.25 10.125h2.307a2.58 2.58 0 0 1 1.812.741l1.415 1.398a4.297 4.297 0 0 0 3.02 1.236h5.112c7.548 0 13.667-6.044 13.667-13.5s-6.119-13.5-13.667-13.5h-13.666c-7.548 0-13.667 6.044-13.667 13.5s6.119 13.5 13.667 13.5Z"/></g><g fill="#394149" clip-path="url(#f)"><path d="M930.343 38.847a7.656 7.656 0 0 0-5.414 2.242l-4.686 4.687a7.657 7.657 0 1 0 10.828 10.828l3.242-3.241 9.444-9.445a3.657 3.657 0 0 1 6.064 1.452l2.98-2.981a7.656 7.656 0 0 0-11.872-1.3l-12.686 12.687a3.657 3.657 0 0 1-5.172-5.172l4.686-4.686a3.657 3.657 0 0 1 6.064 1.452l2.981-2.981a7.653 7.653 0 0 0-6.459-3.542Z"/><path d="M944.243 53.776a3.657 3.657 0 0 1-6.063-1.451l-2.981 2.98a7.656 7.656 0 0 0 11.872 1.299l12.686-12.686a3.657 3.657 0 0 1 5.172 5.172l-4.686 4.686a3.657 3.657 0 0 1-6.064-1.452l-2.98 2.981a7.656 7.656 0 0 0 11.872 1.3l4.686-4.687a7.657 7.657 0 1 0-10.828-10.829l-12.686 12.687Z"/></g><g clip-path="url(#g)"><path fill="#000" d="M1156 44.517V44.288l-.41-2.932c-.06-.351-.22-.68-.46-.948l-.07-.08-.12-.125-7.06-5.957.2.194c-.16-.19-.36-.341-.59-.444a1.729 1.729 0 0 0-.74-.149h-2.14c-.35-.007-.69.102-.96.308-.3-.205-.65-.313-1-.308h-2.15c-.28-.004-.55.064-.8.198s-.45.33-.59.567c-.22.338-.31.745-.24 1.14l.27 1.85c-.18-.1-.38-.15-.58-.149h-10.37c-.37.002-.74.11-1.05.308-.3.185-.54.45-.7.765l-.8-.674a1.68 1.68 0 0 0-1.16-.433h-16.28c-.37.006-.73.109-1.06.297-.43.251-.76.66-.89 1.14l-5.17 16.946c-.1.28-.11.58-.03.865.08.284.25.54.47.733.06.049.12.095.19.136 0 0-.11-.068-.16-.125l7.05 5.968c.3.27.69.42 1.09.422h16.4c.38-.01.74-.116 1.06-.308.18-.097.34-.224.48-.377l.06-.08.09-.114.07-.125.77.65c.29.259.68.401 1.07.4h16.44c.37-.012.73-.119 1.05-.308.18-.103.34-.23.48-.377l.06-.08.09-.114c.05-.072.1-.148.13-.228.04-.07.07-.142.09-.217l4.72-15.473v-.719h1.51c.13.012.27.012.4 0h.1c.09-.025.17-.06.25-.103h.11l.21-.16.1-.068.16-.206v-.068l.11-.194v-.171a.766.766 0 0 0 .06-.205v-.172s.24-.445.24-.468Z"/><path fill="#fff" d="M1124.95 38.72a.43.43 0 0 1 .13.206.39.39 0 0 1-.02.239l-5.16 16.934c-.06.185-.2.34-.37.433a.997.997 0 0 1-.48.16h-16.39a.57.57 0 0 1-.37-.16.404.404 0 0 1-.12-.2.372.372 0 0 1 .02-.233l5.16-16.934a.801.801 0 0 1 .36-.445c.15-.087.31-.138.48-.149h16.39c.14.002.27.055.37.149Zm-8.55 13.967 3.08-10.11h-8.63l-3.08 10.11h8.63Zm24.2-13.796c.05.064.12.114.2.148.08.033.16.049.25.046h2.13c.08 0 .16-.019.23-.057a.558.558 0 0 0 .18-.16.55.55 0 0 0 .08-.174.61.61 0 0 0 0-.191l-.42-3.013a.93.93 0 0 0-.21-.376.578.578 0 0 0-.2-.148.602.602 0 0 0-.25-.046h-2.13c-.08-.001-.16.018-.24.056a.442.442 0 0 0-.17.16c-.08.16-.12.263-.08.354l.43 3.013a.66.66 0 0 0 .2.388Zm6.76-3.423a.93.93 0 0 0-.21-.377.558.558 0 0 0-.44-.194h-2.14a.456.456 0 0 0-.4.217.451.451 0 0 0-.09.354l.43 3.012c.02.145.09.28.2.388.05.063.12.112.2.146.08.033.16.05.25.048h2.14a.47.47 0 0 0 .4-.217c.04-.05.07-.11.08-.173a.616.616 0 0 0 0-.192l-.42-3.012Zm-8.64 4.564-.21-1.483h-10.32a.966.966 0 0 0-.46.148.616.616 0 0 0-.21.186.633.633 0 0 0-.12.259l-.86 2.83c-.04.07-.05.15-.04.227.01.078.05.15.11.207.09.09.22.143.36.148h12.54l-3.08 10.11h-12.51a.924.924 0 0 0-.46.137.773.773 0 0 0-.33.445l-.88 2.83a.442.442 0 0 0-.02.228c.02.076.05.148.1.206.1.096.23.153.36.16h16.44c.17-.015.33-.07.48-.16.17-.095.3-.25.36-.434l4.72-15.474h-5.32a.617.617 0 0 1-.45-.182.858.858 0 0 1-.2-.365v-.023Z"/></g><defs><clipPath id="a"><path fill="#fff" d="M4 29h40v40H4z"/></clipPath><clipPath id="b"><path fill="#fff" d="M188 34.847h40v28h-40z"/></clipPath><clipPath id="c"><path fill="#fff" d="M365 33.847h55v30h-55z"/></clipPath><clipPath id="d"><path fill="#fff" d="M553 34.847h47v29h-47z"/></clipPath><clipPath id="e"><path fill="#fff" d="M740 35.847h41v27h-41z"/></clipPath><clipPath id="f"><path fill="#fff" d="M918 38.847h52v20h-52z"/></clipPath><clipPath id="g"><path fill="#fff" d="M1101 33.847h55v30h-55z"/></clipPath></defs></svg>