<svg xmlns="http://www.w3.org/2000/svg" width="497" height="49" fill="none"><rect width="48" height="48" y=".399" fill="#E8F5E9" rx="8"/><g clip-path="url(#a)"><path fill="#5417D7" fill-rule="evenodd" d="M10.353.594c5.523 0 10 4.477 10 10v-10h10c5.523 0 10 4.477 10 10 0 5.522-4.477 10-10 10 5.523 0 10 4.477 10 10a9.968 9.968 0 0 1-2.891 7.033l-.038.038-.033.033a9.968 9.968 0 0 1-7.038 2.896 9.968 9.968 0 0 1-7.136-2.995 9.968 9.968 0 0 1-2.864-7.005c0 5.522-4.477 10-10 10s-10-4.478-10-10v-10h10c-5.523 0-10-4.478-10-10 0-5.523 4.477-10 10-10Zm8 10a8 8 0 0 1-8 8v-16a8 8 0 0 1 8 8Zm20 20a8 8 0 1 0-16 0h16Zm-36-8v8a8 8 0 1 0 16 0v-8h-16Zm20-4v-16h8a8 8 0 1 1 0 16h-8Z" clip-rule="evenodd"/></g><rect width="48" height="48" x="89" y=".399" fill="#F5F7FA" rx="8"/><g clip-path="url(#b)"><path fill="#3B4158" fill-rule="evenodd" d="m99.098 14.36-9.986 9.886a28.268 28.268 0 0 0 6.767 4.947 13.935 13.935 0 0 0 3.233 4.952c5.523 5.468 14.478 5.468 20 0a13.942 13.942 0 0 0 3.234-4.952 28.268 28.268 0 0 0 6.766-4.947l-9.977-9.877-.023-.023c-5.522-5.467-14.477-5.467-20 0l-.014.014Zm19.059 16.617a28.548 28.548 0 0 1-18.089 0c.315.414.663.811 1.044 1.188 4.419 4.374 11.582 4.374 16 0 .381-.377.73-.774 1.045-1.188Zm-16.84-14.849a14.24 14.24 0 0 0 7.795 2.319 14.26 14.26 0 0 0 7.795-2.319c-4.363-4.11-11.226-4.11-15.59 0Z" clip-rule="evenodd"/></g><rect width="48" height="48" x="178" y=".399" fill="#F5F7FA" rx="8"/><g clip-path="url(#c)"><path fill="#000" d="M232.996 19.916a.528.528 0 0 0 0-.126.353.353 0 0 0 0-.103l-.408-2.932a1.894 1.894 0 0 0-.454-.947l-.07-.08-.127-.126-7.054-5.956.198.194a1.684 1.684 0 0 0-.595-.445 1.718 1.718 0 0 0-.732-.149h-2.142a1.57 1.57 0 0 0-.966.308 1.698 1.698 0 0 0-1.001-.308h-2.142a1.618 1.618 0 0 0-.803.198c-.245.135-.45.33-.593.567a1.566 1.566 0 0 0-.233 1.14l.268 1.85a1.186 1.186 0 0 0-.582-.149h-10.371c-.372.002-.736.11-1.048.308-.302.185-.544.45-.698.765l-.803-.674a1.685 1.685 0 0 0-1.164-.433h-16.272a2.177 2.177 0 0 0-1.06.296c-.438.252-.76.661-.896 1.142L178.08 31.2c-.096.28-.106.58-.027.865a1.483 1.483 0 0 0 .656.87s-.105-.069-.163-.126l7.053 5.968c.299.27.689.42 1.094.422h16.401c.374-.01.739-.116 1.059-.308.18-.097.342-.224.477-.377l.058-.08.093-.113.07-.126.768.65c.294.26.676.401 1.071.4h16.435a2.218 2.218 0 0 0 1.059-.308c.177-.103.338-.23.478-.377l.058-.08.093-.114c.05-.072.092-.148.128-.228.038-.07.069-.142.093-.217l4.714-15.473v-.137a.71.71 0 0 0 0-.16v-.103a.296.296 0 0 0 0-.102 1.569 1.569 0 0 0 0-.217h1.513a2.2 2.2 0 0 0 .396 0h.105c.085-.025.167-.06.244-.103h.117l.209-.16.093-.068.163-.206v-.068l.117-.194a.313.313 0 0 1 0-.114.08.08 0 0 1 0-.057 1.46 1.46 0 0 0 .058-.206.133.133 0 0 1 0-.068.295.295 0 0 1 0-.103s.233-.445.233-.467Z"/><path fill="#fff" d="M201.953 14.119a.398.398 0 0 1 .105.445l-5.157 16.934a.79.79 0 0 1-.372.433.992.992 0 0 1-.477.16h-16.389a.575.575 0 0 1-.372-.16.397.397 0 0 1-.105-.433l5.168-16.934a.787.787 0 0 1 .361-.445c.144-.087.308-.138.477-.149h16.388a.555.555 0 0 1 .373.149Zm-8.555 13.967 3.084-10.11h-8.636l-3.073 10.11h8.625Zm24.199-13.796a.584.584 0 0 0 .454.194h2.13a.483.483 0 0 0 .407-.217.47.47 0 0 0 .081-.365l-.419-3.013a.952.952 0 0 0-.209-.376.57.57 0 0 0-.454-.194h-2.13a.482.482 0 0 0-.407.217c-.082.16-.117.262-.082.353l.431 3.013a.687.687 0 0 0 .198.388Zm6.762-3.423a.952.952 0 0 0-.209-.377.556.556 0 0 0-.443-.194h-2.141a.443.443 0 0 0-.396.217.469.469 0 0 0-.093.353l.43 3.013c.027.145.096.28.198.388a.589.589 0 0 0 .454.194h2.142a.457.457 0 0 0 .396-.217.427.427 0 0 0 .081-.365l-.419-3.012Zm-8.636 4.564-.21-1.483h-10.324a.92.92 0 0 0-.454.148.666.666 0 0 0-.338.445l-.861 2.83a.388.388 0 0 0-.034.227.39.39 0 0 0 .104.207c.098.09.226.143.361.148h12.547l-3.084 10.11h-12.513a.888.888 0 0 0-.454.137.776.776 0 0 0-.337.445l-.873 2.83a.413.413 0 0 0 .081.433.54.54 0 0 0 .361.16h16.435c.17-.014.334-.069.477-.16a.767.767 0 0 0 .361-.433L221.694 16h-5.32a.628.628 0 0 1-.454-.182.822.822 0 0 1-.197-.365v-.023Z"/></g><rect width="48" height="48" x="267" y=".399" fill="#F5F7FA" rx="8"/><g fill="#3A3B7B" clip-path="url(#d)"><path d="M310.997 13.81c0 .034 0 .077-.009.102-.044.33-.044.66-.018.997.018.085.035.17.106.237.114.127.29.102.361-.05a.34.34 0 0 0 .017-.229c-.088-.321-.105-.66-.114-.989v-.067c.097-.009.185-.017.264-.017a.433.433 0 0 0 .159-.043c.132-.067.132-.211-.009-.279a.45.45 0 0 0-.185-.033c-.22.008-.44.008-.661.008-.079 0-.158.009-.237.017-.044.008-.097.008-.132.034-.062.025-.097.067-.097.127.008.059.035.093.097.118a.207.207 0 0 0 .123.034c.105.008.22.025.335.034Zm2.422.39c0 .008.008.016.008.016.036.229.071.448.097.668.009.076.018.144.071.203.114.144.29.127.37-.025a.363.363 0 0 0 .026-.237c-.053-.254-.079-.507-.132-.752a5.03 5.03 0 0 0-.123-.431.207.207 0 0 0-.194-.153.215.215 0 0 0-.229.11 1.05 1.05 0 0 0-.132.212c-.062.135-.115.27-.185.397a.265.265 0 0 1-.035.084c-.009-.017-.018-.025-.018-.025-.114-.211-.22-.423-.335-.625-.017-.017-.026-.034-.035-.051-.053-.076-.114-.119-.211-.119a.261.261 0 0 0-.203.136c-.017.034-.017.059-.026.093-.036.27-.08.54-.115.811a4.11 4.11 0 0 0-.026.457.165.165 0 0 0 .017.11c.018.067.071.11.141.118.088.008.15-.017.176-.085a.47.47 0 0 0 .045-.135c.035-.152.061-.296.088-.44.017-.084.026-.152.052-.245.018.034.036.06.053.085.08.101.159.203.256.287.097.068.176.06.255-.017l.044-.042c.079-.118.176-.237.256-.355.017-.017.026-.034.044-.05ZM293.124 13.977c-.061.16-.072.276-.044.372.031.131.112.174.222.14 1.035-.245 3.303.452 4.143.646.198.041.359-.204.224-.424-.197-.213-2.465-1.126-3.33-1.175-.339-.019-.945-.102-1.215.44ZM301.99 11.024c.111.06.172.119.203.184.045.085.021.144-.055.175-.684.32-1.594 1.699-1.961 2.175-.089.109-.295.045-.326-.134.007-.204.813-1.7 1.264-2.108.176-.16.469-.472.875-.293ZM296.544 10.345c.133-.096.271-.13.341-.068 1.032.847 1.579 2.189 1.918 3.416.012.029.013.07.003.113-.004.036-.032.075-.076.105-.048.033-.088.043-.107.014-.453-.59-3.035-2.887-2.079-3.58ZM274.695 25.028c.248-.177.516-.324.801-.438.297-.082.615-.069.904.038.289.107.533.301.697.553.147.252.204.542.163.828-.04.285-.176.55-.387.755-.164.166-.35.311-.552.43-.905.562-1.818 1.092-2.731 1.653-.186.14-.384.266-.592.376a1.57 1.57 0 0 1-1.02.115 1.523 1.523 0 0 1-.862-.537 3.022 3.022 0 0 1-.4-.623c-.865-1.744-1.761-3.48-2.594-5.256-.384-.768-.696-1.652-1.001-2.505a1.03 1.03 0 0 1-.071-.8c.085-.266.276-.49.53-.623.255-.133.553-.165.832-.09.28.074.517.25.663.491.448.571.844 1.178 1.185 1.814.864 1.537 1.689 3.073 2.522 4.564.048.082.102.162.16.238a7.847 7.847 0 0 0 1.753-.983ZM283.635 24.492c-1.977 2.22-5.292 1.66-6.957-1.2-1.185-2.028-1.393-5.378 1.185-7.491a4.328 4.328 0 0 1 1.913-.876 4.293 4.293 0 0 1 2.518.418 4.058 4.058 0 0 1 1.782 1.756c1.409 2.46 1.209 5.595-.441 7.393Zm-.8-5.18a2.781 2.781 0 0 0-1.193-1.46 1.75 1.75 0 0 0-2.138.131c-1.145.976-1.385 3.289-.552 4.664.106.225.262.424.457.584.194.16.423.278.67.345a1.834 1.834 0 0 0 1.467-.23 3.626 3.626 0 0 0 1.302-1.819 3.487 3.487 0 0 0-.037-2.207l.024-.008ZM291.706 20.28a1.622 1.622 0 0 1-.616.008 1.586 1.586 0 0 1-.569-.223 1.167 1.167 0 0 1-.381-.333 1.098 1.098 0 0 1 .076-1.388c.199-.253.481-.434.801-.515a12.046 12.046 0 0 1 2.562-.422 1.496 1.496 0 0 1 1.074.299 1.354 1.354 0 0 1 .527.946 5.75 5.75 0 0 1 .08 2.758c-.72 2.95-3.202 3.965-5.988 3.02a4.15 4.15 0 0 1-1.97-1.352 6.256 6.256 0 0 1-1.385-2.62 5.295 5.295 0 0 1 .063-2.603 5.452 5.452 0 0 1 1.298-2.285 5.658 5.658 0 0 1 2.21-1.621 2.59 2.59 0 0 1 1.793-.23.805.805 0 0 1 .362.206.74.74 0 0 1 .191.758.77.77 0 0 1-.224.342c-.2.173-.418.328-.649.46a6.565 6.565 0 0 0-1.825 1.653 3.528 3.528 0 0 0-.654 1.429 3.455 3.455 0 0 0 .037 1.56 3.453 3.453 0 0 0 1.153 1.79c1.761 1.537 4.051.054 3.651-2.044-.585.139-1.097.285-1.617.408ZM302.466 24.614c-2.602 1.537-5.564 0-6.213-3.227-.472-2.305.425-5.532 3.563-6.762a4.434 4.434 0 0 1 2.106-.261c.857.15 1.643.556 2.248 1.158a3.934 3.934 0 0 1 1.122 2.2c.529 2.743-.672 5.67-2.826 6.892Zm.905-5.17a2.647 2.647 0 0 0-.665-1.745 1.684 1.684 0 0 0-.937-.613 1.743 1.743 0 0 0-1.128.098c-1.409.584-2.402 2.705-2.042 4.265.028.244.11.48.243.691.132.211.311.392.524.53a1.835 1.835 0 0 0 1.467.224 3.773 3.773 0 0 0 1.844-1.336 3.536 3.536 0 0 0 .694-2.115ZM307.924 25.26c-.04.281-.194.536-.429.708a1.148 1.148 0 0 1-1.562-.2 1.037 1.037 0 0 1-.219-.792 1.06 1.06 0 0 1 .428-.709 1.15 1.15 0 0 1 1.563.201c.179.226.258.51.219.792Zm-.697-10.366c.152-.223.376-.393.637-.485.261-.09.546-.099.812-.022.271.065.51.217.678.431.167.214.253.477.243.745-.035.429-.102.855-.2 1.275-.264 1.422-.521 2.843-.801 4.25a19.416 19.416 0 0 1-.48 1.667 1.179 1.179 0 0 1-.313.469.793.793 0 0 1-.325.218.834.834 0 0 1-.763-.105.778.778 0 0 1-.249-.298 1.74 1.74 0 0 1-.152-.668c0-.953 0-1.914.064-2.874.109-1.37.323-2.732.641-4.073a1.5 1.5 0 0 1 .208-.507v-.023Z"/><path fill-rule="evenodd" d="M271.313 31.435a1.02 1.02 0 0 0-.075.646c.031.286.099.568.201.838.129.332.272.66.449 1.063l.128.292c.238.547.538 1.247.937 2.259.113.287.214.577.315.87l.124.354c.15.421.409.8.752 1.1.145.165.338.285.555.346.221.06.456.057.674-.012.219-.068.411-.198.551-.373a1.07 1.07 0 0 0 .235-.593c.09-.42.059-.856-.088-1.261a21.64 21.64 0 0 0-.806-2.005l-.002-.003a125.325 125.325 0 0 0-1.555-3.077l-.004-.008a2.67 2.67 0 0 0-.604-.704 1.063 1.063 0 0 0-.614-.34c-.245-.042-.498 0-.713.12a1.074 1.074 0 0 0-.46.488ZM279.022 28.897a5.848 5.848 0 0 0-2.422-.084c-.623.06-1.235.197-1.661.47a1.237 1.237 0 0 0-.488.544c-.098.228-.11.49-.03.78.146.533.336 1.05.526 1.566l.03.084.001.002c.57 1.499 1.146 2.992 1.727 4.481.068.235.164.461.286.675l.002.004c.161.265.368.502.611.701.122.11.272.186.435.22a.958.958 0 0 0 .496-.03.92.92 0 0 0 .408-.27.871.871 0 0 0 .201-.428 2.07 2.07 0 0 0-.097-1.284c-.052-.137-.093-.278-.137-.425l-.044-.151c1.33-.499 2.745-1.17 3.242-2.73.195-.54.212-1.124.047-1.673a2.763 2.763 0 0 0-.968-1.393 5.702 5.702 0 0 0-2.165-1.059Zm-2.194 1.915c.027-.008.053-.015.079-.02a3.762 3.762 0 0 1 2.495.49c.327.218.461.46.484.694.024.24-.067.501-.25.752-.346.473-.977.852-1.547.922-.416-.918-.838-1.874-1.261-2.838Z" clip-rule="evenodd"/><path d="M284.299 27.216c.943-.418 2.11-.49 3.024-.197.23.065.43.204.565.394a.96.96 0 0 1 .175.644.904.904 0 0 1-.11.425.961.961 0 0 1-.306.335 1.014 1.014 0 0 1-.893.114l-.011-.004-.011-.005a1.024 1.024 0 0 0-.238-.086h-.006c-.642-.164-1.248.107-1.47.44-.106.16-.119.32-.031.466.095.157.326.332.793.457.129.034.26.067.394.1.37.092.754.187 1.126.32h.001c1.714.626 2.352 1.922 2.134 3.141-.217 1.206-1.266 2.303-2.843 2.562a3.519 3.519 0 0 1-1.734-.069 3.403 3.403 0 0 1-1.472-.889l-.01-.01a1.214 1.214 0 0 1-.25-.535.902.902 0 0 1 .053-.523.94.94 0 0 1 .335-.412 1.061 1.061 0 0 1 1.123-.084c.175.082.338.185.484.308l.002.002c.259.227.571.286.871.231.304-.055.59-.228.773-.457.183-.228.256-.498.169-.76-.087-.265-.351-.56-.929-.809a5.044 5.044 0 0 0-.471-.16l-.134-.038a10.62 10.62 0 0 1-.366-.112 18.728 18.728 0 0 0-.25-.079 6.429 6.429 0 0 1-.655-.23 2.256 2.256 0 0 1-1.132-.823 2.107 2.107 0 0 1-.396-1.313c.001-1.14.749-1.924 1.696-2.344ZM296.249 27.094a1.27 1.27 0 0 0-1.164.046c-.174.1-.319.238-.424.404a1.24 1.24 0 0 0-.192.957c.034.211.072.416.109.618.062.334.122.66.161.994l.002.008c.09.522.137 1.05.142 1.58v.007a2.143 2.143 0 0 1-.565 1.562l-.007.008a1.112 1.112 0 0 1-.493.347c-.195.07-.407.085-.611.046a1.136 1.136 0 0 1-.544-.268 1.064 1.064 0 0 1-.316-.504 5.255 5.255 0 0 1-.202-1.244l.2-3.049.009-.122c.008-.092.016-.187.019-.275a1.37 1.37 0 0 0-.031-.388.72.72 0 0 0-.202-.356 1.008 1.008 0 0 0-.435-.231c-.33-.092-.609-.09-.841.006-.233.094-.392.27-.505.473-.112.202-.184.44-.238.679-.041.177-.073.363-.104.54l-.032.18v.001a12.42 12.42 0 0 0-.146 2.94c.013.53.128 1.054.34 1.544.239.633.673 1.18 1.243 1.572a3.566 3.566 0 0 0 1.957.62 3.574 3.574 0 0 0 1.977-.556 3.357 3.357 0 0 0 1.298-1.532 5.52 5.52 0 0 0 .503-2.53 87.72 87.72 0 0 0-.094-1.91l-.051-.933a1.475 1.475 0 0 0-.305-.862 1.216 1.216 0 0 0-.458-.372ZM302.717 31.875l-.058.07c-.149-.822-.287-1.645-.425-2.47l-.149-.888-.005-.033-.019-.028c-.034-.054-.038-.107-.038-.22v-.012l-.002-.013a1.147 1.147 0 0 0-.313-.62 1.232 1.232 0 0 0-.621-.34 1.289 1.289 0 0 0-.717.035c-.23.079-.43.221-.576.41-.121.144-.22.303-.295.474-.168.368-.339.737-.51 1.107l-.002.006c-.427.924-.856 1.854-1.273 2.791l-.001.003c-.256.608-.467 1.248-.678 1.886l-.126.382c-.076.201-.11.415-.098.63a.906.906 0 0 0 .137.546c.105.168.262.3.449.378.199.084.421.102.631.05a.98.98 0 0 0 .53-.33c.171-.201.318-.42.437-.653.353-.694.691-1.395 1.027-2.094.13-.27.256-.512.4-.776.009.033.02.065.03.096.151.637.405 1.246.753 1.807a.955.955 0 0 0 .269.304.998.998 0 0 0 .803.17.992.992 0 0 0 .381-.17l.224-.16 1.734-1.401-.103.627c-.141.862-.28 1.717-.429 2.572-.097.378-.097.774.001 1.153.042.213.149.41.308.564.161.156.366.261.59.304.223.042.455.018.665-.067.207-.085.382-.227.505-.407.286-.34.464-.752.513-1.187.073-.614.157-1.236.24-1.859.096-.717.191-1.434.272-2.137l.001-.002c.077-.77.115-1.543.113-2.316a1.133 1.133 0 0 0-.182-.696 1.203 1.203 0 0 0-.573-.464 1.317 1.317 0 0 0-.789-.082 1.273 1.273 0 0 0-.68.38c-.32.284-.62.588-.899.91l-.001.002c-.304.363-.606.733-.906 1.102-.182.223-.364.447-.545.666Z"/></g><rect width="48" height="48" x="356" y=".399" fill="#F5F7FA" rx="8"/><g fill="#212326" clip-path="url(#e)"><path d="M394.438 12.09c0 .466.382.843.854.843h.854a.849.849 0 0 0 .854-.843.849.849 0 0 0-.854-.844h-.854a.849.849 0 0 0-.854.844ZM369.667 38.246h4.149l-1.208-1.193a1.719 1.719 0 0 0-1.208-.495h-1.733c-6.605 0-11.959-5.288-11.959-11.812 0-6.524 5.354-11.813 11.959-11.813h13.666c6.605 0 11.959 5.289 11.959 11.813 0 6.524-5.354 11.812-11.959 11.812h-5.112c-.68 0-1.332-.266-1.812-.741l-1.415-1.398a4.3 4.3 0 0 0-3.02-1.236h-2.307c-4.718 0-8.542-3.777-8.542-8.437 0-4.66 3.824-8.438 8.542-8.438h13.666c4.718 0 8.542 3.778 8.542 8.438s-3.824 8.437-8.542 8.437h-3.282c-.68 0-1.332-.266-1.812-.741l-1.416-1.398a4.297 4.297 0 0 0-3.02-1.236h-4.136c-2.831 0-5.125-2.266-5.125-5.062 0-2.796 2.294-5.063 5.125-5.063h13.666c2.831 0 5.125 2.267 5.125 5.063 0 2.762-2.239 5.007-5.021 5.061l-.001.001h-1.25c-.68 0-1.331-.266-1.812-.741l-1.415-1.398a4.292 4.292 0 0 0-2.416-1.193l-.043-.043h-6.833a1.698 1.698 0 0 1-1.709-1.687c0-.932.765-1.688 1.709-1.688h13.666c.944 0 1.709.756 1.709 1.688 0 .932-.765 1.687-1.709 1.687h-3.416l1.208 1.194c.32.316.755.494 1.208.494h1c1.887 0 3.417-1.511 3.417-3.375s-1.53-3.375-3.417-3.375h-13.666c-1.887 0-3.417 1.51-3.417 3.375 0 1.864 1.53 3.375 3.417 3.375h6.272c.68 0 1.331.267 1.812.741l1.415 1.398a4.297 4.297 0 0 0 3.02 1.236h1.574v-.013c3.575-.218 6.407-3.15 6.407-6.737 0-3.728-3.06-6.75-6.834-6.75h-13.666c-3.774 0-6.834 3.022-6.834 6.75s3.06 6.75 6.834 6.75h4.136c.68 0 1.332.267 1.812.741l1.416 1.398a4.297 4.297 0 0 0 3.02 1.236h3.282c5.661 0 10.25-4.533 10.25-10.125s-4.589-10.125-10.25-10.125h-13.666c-5.661 0-10.25 4.533-10.25 10.125s4.589 10.125 10.25 10.125h2.307a2.58 2.58 0 0 1 1.812.741l1.415 1.398a4.297 4.297 0 0 0 3.02 1.236h5.112c7.548 0 13.667-6.044 13.667-13.5s-6.119-13.5-13.667-13.5h-13.666c-7.548 0-13.667 6.044-13.667 13.5s6.119 13.5 13.667 13.5Z"/></g><rect width="48" height="48" x="445" y=".399" fill="#F5F7FA" rx="8"/><g fill="#394149" clip-path="url(#f)"><path d="M457.343 14.246a7.656 7.656 0 0 0-5.414 2.242l-4.686 4.687a7.657 7.657 0 1 0 10.828 10.828l3.242-3.241 9.444-9.445a3.657 3.657 0 0 1 6.064 1.452l2.98-2.981a7.656 7.656 0 0 0-11.872-1.3l-12.686 12.687a3.657 3.657 0 0 1-5.172-5.172l4.686-4.686a3.657 3.657 0 0 1 6.064 1.452l2.981-2.981a7.653 7.653 0 0 0-6.459-3.542Z"/><path d="M471.243 29.175a3.657 3.657 0 0 1-6.063-1.451l-2.981 2.98a7.656 7.656 0 0 0 11.872 1.299l12.686-12.686a3.657 3.657 0 0 1 5.172 5.171l-4.686 4.687a3.657 3.657 0 0 1-6.064-1.452l-2.98 2.981a7.656 7.656 0 0 0 11.872 1.3l4.686-4.687a7.657 7.657 0 1 0-10.828-10.829l-12.686 12.687Z"/></g><defs><clipPath id="a"><path fill="#fff" d="M.353.594h40v40h-40z"/></clipPath><clipPath id="b"><path fill="#fff" d="M89.112 10.246h40v28h-40z"/></clipPath><clipPath id="c"><path fill="#fff" d="M178 9.246h55v30h-55z"/></clipPath><clipPath id="d"><path fill="#fff" d="M267 10.246h47v29h-47z"/></clipPath><clipPath id="e"><path fill="#fff" d="M356 11.246h41v27h-41z"/></clipPath><clipPath id="f"><path fill="#fff" d="M445 14.246h52v20h-52z"/></clipPath></defs></svg>