<svg xmlns="http://www.w3.org/2000/svg" width="176" height="33" fill="none"><g fill="#fff" fill-rule="evenodd" clip-path="url(#a)" clip-rule="evenodd"><path d="M0 16.672c0-8.837 7.163-16 16-16s16 7.163 16 16c0 8.836-7.163 16-16 16s-16-7.164-16-16Z" opacity=".1"/><path d="M16 8.138c-2.317 0-2.608.01-3.518.052-.908.042-1.528.185-2.07.396a4.178 4.178 0 0 0-1.513.984 4.19 4.19 0 0 0-.984 1.512c-.212.543-.356 1.163-.397 2.071-.04.91-.051 1.201-.051 3.519 0 2.317.01 2.607.051 3.518.042.908.186 1.528.397 2.07.218.562.51 1.038.984 1.512.474.475.95.767 1.511.985.543.211 1.163.355 2.072.397.91.041 1.2.051 3.518.051 2.317 0 2.607-.01 3.518-.051.908-.042 1.529-.186 2.072-.397a4.176 4.176 0 0 0 1.51-.985c.475-.474.767-.95.985-1.511.21-.543.354-1.163.397-2.071.04-.91.051-1.2.051-3.518 0-2.318-.01-2.609-.051-3.519-.043-.908-.187-1.528-.397-2.07A4.188 4.188 0 0 0 23.1 9.57a4.17 4.17 0 0 0-1.51-.984c-.545-.21-1.165-.354-2.074-.396-.91-.041-1.2-.052-3.518-.052h.003Zm-.765 1.538h.766c2.278 0 2.548.008 3.448.05.832.037 1.284.176 1.584.293.399.155.682.34.981.638.299.299.484.584.639.982.116.3.256.752.293 1.584.041.9.05 1.17.05 3.447s-.009 2.547-.05 3.447c-.038.832-.177 1.284-.293 1.584-.155.398-.34.682-.639.98a2.638 2.638 0 0 1-.98.639c-.301.117-.753.256-1.585.294-.9.04-1.17.05-3.448.05-2.279 0-2.549-.01-3.448-.05-.833-.039-1.284-.178-1.585-.295a2.643 2.643 0 0 1-.981-.638 2.644 2.644 0 0 1-.639-.98c-.117-.301-.256-.753-.294-1.585-.04-.9-.049-1.17-.049-3.448 0-2.279.008-2.548.05-3.447.037-.832.176-1.284.293-1.585.155-.398.34-.682.639-.981.298-.299.583-.484.981-.639.3-.117.752-.256 1.585-.294.787-.035 1.092-.046 2.682-.048v.002Zm5.32 1.417a1.024 1.024 0 1 0 0 2.048 1.024 1.024 0 0 0 0-2.048Zm-4.554 1.197a4.382 4.382 0 1 0 0 8.764 4.382 4.382 0 0 0 0-8.764Zm0 1.537a2.844 2.844 0 1 1 0 5.69 2.844 2.844 0 0 1 0-5.69Z"/><path d="M48 16.672c0-8.837 7.163-16 16-16s16 7.163 16 16c0 8.836-7.163 16-16 16s-16-7.164-16-16Z" opacity=".1"/><path d="M72.533 16.66a8.537 8.537 0 0 1-.671 3.317 8.588 8.588 0 0 1-3.09 3.748 8.62 8.62 0 0 1-1.45.786 8.568 8.568 0 0 1-6.644 0 8.62 8.62 0 0 1-1.45-.786 8.594 8.594 0 0 1-3.09-3.748 8.49 8.49 0 0 1-.499-5.033 8.468 8.468 0 0 1 1.285-3.05 8.605 8.605 0 0 1 2.304-2.3 8.451 8.451 0 0 1 3.053-1.283 8.599 8.599 0 0 1 5.04.496 8.564 8.564 0 0 1 3.754 3.088 8.443 8.443 0 0 1 1.285 3.05c.115.56.173 1.137.173 1.715ZM60.89 10.078a7.288 7.288 0 0 0-4.022 5.082c.192.001 3.23.04 6.728-.889a43.817 43.817 0 0 0-2.706-4.193Zm3.31 5.314c-3.752 1.121-7.353 1.04-7.482 1.036-.002.078-.006.154-.006.232a7.24 7.24 0 0 0 1.867 4.862c-.002-.003 1.992-3.536 5.925-4.806.095-.032.191-.06.287-.088a24.629 24.629 0 0 0-.591-1.236Zm4.612-4.194A7.258 7.258 0 0 0 64 9.383c-.593 0-1.167.072-1.718.204.11.147 1.478 1.96 2.725 4.245 2.75-1.03 3.787-2.607 3.805-2.634Zm-3.524 6.636-.048.016c-4.3 1.497-5.704 4.513-5.72 4.546a7.279 7.279 0 0 0 4.48 1.54 7.26 7.26 0 0 0 2.845-.576c-.108-.636-.531-2.865-1.557-5.526Zm2.784 4.86a7.279 7.279 0 0 0 3.123-4.88c-.15-.049-2.19-.694-4.541-.317.955 2.623 1.344 4.76 1.418 5.198Zm-2.504-7.777a22.815 22.815 0 0 1 .641 1.432c2.504-.315 4.97.214 5.076.236a7.234 7.234 0 0 0-1.657-4.548c-.014.02-1.183 1.706-4.06 2.88Z"/><path d="M96 16.672c0-8.837 7.163-16 16-16s16 7.163 16 16c0 8.836-7.163 16-16 16s-16-7.164-16-16Z" opacity=".1"/><path d="m111.521 13.677.033.553-.559-.067c-2.037-.26-3.817-1.142-5.327-2.622l-.739-.734-.19.542c-.403 1.21-.146 2.486.694 3.345.447.474.346.542-.426.26-.268-.09-.503-.159-.526-.125-.078.08.191 1.107.403 1.514.291.565.884 1.119 1.533 1.447l.549.26-.649.01c-.627 0-.649.012-.582.25.224.734 1.108 1.513 2.093 1.852l.693.238-.604.361a6.298 6.298 0 0 1-2.999.836c-.504.011-.918.057-.918.09 0 .113 1.365.746 2.16.995 2.384.734 5.215.418 7.342-.836 1.511-.893 3.021-2.667 3.727-4.384.38-.915.761-2.588.761-3.39 0-.52.033-.587.66-1.209.369-.361.716-.757.783-.87.112-.215.101-.215-.47-.022-.951.339-1.085.293-.615-.215.347-.362.761-1.017.761-1.209 0-.034-.168.023-.358.124-.202.113-.649.283-.985.384l-.605.193-.548-.373c-.302-.204-.727-.43-.951-.498-.571-.158-1.444-.135-1.959.046-1.399.508-2.283 1.819-2.182 3.254Z"/><path d="M144 16.672c0-8.837 7.163-16 16-16s16 7.163 16 16c0 8.836-7.163 16-16 16s-16-7.164-16-16Z" opacity=".1"/><path d="M166.668 11.171a2.169 2.169 0 0 1 1.509 1.55c.356 1.366.356 4.218.356 4.218s0 2.85-.356 4.217a2.169 2.169 0 0 1-1.509 1.55c-1.331.366-6.668.366-6.668.366s-5.337 0-6.668-.366a2.167 2.167 0 0 1-1.509-1.55c-.356-1.366-.356-4.217-.356-4.217s0-2.852.356-4.218a2.167 2.167 0 0 1 1.509-1.55c1.331-.366 6.668-.366 6.668-.366s5.337 0 6.668.366ZM158.4 14.54v5.333l4.267-2.667-4.267-2.666Z"/></g><defs><clipPath id="a"><path fill="#fff" d="M0 .672h176v32H0z"/></clipPath></defs></svg>